<svg version="1.2" baseProfile="tiny-ps" xmlns="http://www.w3.org/2000/svg" viewBox="0 0 28 32" width="28" height="32">
	<title>acelords-svg</title>
	<style>
		tspan { white-space:pre }
		.shp0 { fill: #ffffff } 
	</style>
	<g id="Layer">
		<g id="merged">
			<path id="Layer" fill-rule="evenodd" class="shp0" d="M14.09 0.1C14.18 0.2 14.34 1.06 14.35 1.41C14.35 1.78 14.47 2.11 14.66 2.19C15.08 2.39 15.14 2.43 15.16 2.54C15.18 2.66 14.94 2.96 14.82 2.96C14.69 2.96 14.28 3.48 14.28 3.65C14.28 3.68 14.48 3.7 14.71 3.7C15.08 3.7 15.19 3.73 15.42 3.88C15.74 4.11 15.92 4.45 15.81 4.71C15.76 4.85 15.77 4.89 15.84 4.89C16.01 4.89 16.07 5.14 15.97 5.41C15.81 5.8 15.83 6.01 16.04 6.13C16.14 6.19 16.34 6.37 16.49 6.54C16.74 6.82 16.76 6.82 16.81 6.68C17.04 6.07 17.87 6.09 18.17 6.72C18.35 7.13 18.25 7.58 17.89 7.87L17.68 8.03L18.03 8.23C18.43 8.46 18.96 9.03 19.2 9.49C19.35 9.78 19.37 9.89 19.37 10.4C19.37 10.87 19.34 11.03 19.23 11.25C19.15 11.4 19.06 11.54 19.02 11.56C18.97 11.59 19.11 11.66 19.33 11.73C19.92 11.92 20.29 12.38 20.29 12.94L20.29 13.18L20.62 13.22C20.88 13.26 20.99 13.32 21.19 13.51C21.4 13.74 21.43 13.8 21.43 14.1C21.43 14.42 21.41 14.46 21.17 14.69C21.02 14.84 20.85 14.94 20.72 14.95L20.51 14.98L20.88 15.34C21.15 15.61 21.41 15.78 21.92 16.03C23.78 16.93 24.28 17.26 24.91 17.95C25.66 18.78 25.97 19.52 25.98 20.43C25.98 20.85 25.83 21.47 25.72 21.54C25.6 21.61 25.67 21.69 26 21.88C26.36 22.09 26.72 22.43 27 22.81C27.22 23.12 27.45 23.85 27.4 24.08C27.37 24.2 27.4 24.25 27.5 24.31C27.58 24.34 27.7 24.45 27.77 24.54C27.87 24.69 27.88 24.75 27.83 24.87C27.78 24.98 27.79 25.06 27.88 25.21C28.01 25.41 27.99 25.58 27.83 25.77C27.77 25.84 27.76 25.88 27.8 25.92C27.91 25.98 27.89 26.24 27.75 26.42C27.68 26.51 27.63 26.62 27.65 26.67C27.7 26.78 27.46 27.11 27.32 27.11C27.24 27.11 27.26 27.15 27.39 27.29C27.52 27.42 27.58 27.57 27.6 27.78C27.63 28.03 27.61 28.09 27.44 28.27C27.29 28.42 27.2 28.46 26.97 28.46C26.8 28.46 26.66 28.42 26.61 28.36C26.57 28.31 26.51 28.27 26.49 28.27C26.47 28.27 26.26 28.61 26.01 29.02C25.31 30.21 24.3 31.2 23.37 31.61C22.79 31.86 22.25 31.96 21.46 31.96C20.62 31.95 20.29 31.88 19.63 31.53C19.2 31.3 18.54 30.65 18.33 30.25L18.18 29.97L17.74 30.12C17.15 30.32 16.19 30.34 15.67 30.16C14.71 29.84 13.84 28.85 13.84 28.08C13.84 27.94 13.82 27.8 13.78 27.78C13.74 27.76 13.72 27.85 13.72 28.01C13.72 28.54 13.17 29.35 12.56 29.71C12.08 30 11.76 30.07 11.12 30.07C10.64 30.07 10.43 30.04 10.05 29.91C9.79 29.82 9.54 29.75 9.5 29.75C9.46 29.75 9.36 29.88 9.28 30.05C9.06 30.5 8.39 31.16 7.9 31.4C7.26 31.72 7.04 31.76 6.26 31.76C5.16 31.76 4.47 31.52 3.59 30.87C2.84 30.31 2.43 29.79 1.62 28.38C1.42 28.03 1.23 27.75 1.2 27.75C1.11 27.75 1.07 27.87 1.14 27.89C1.2 27.91 1.2 27.95 1.14 28.06C0.92 28.5 0.24 28.18 0.35 27.69C0.46 27.15 1.37 27.07 1.81 27.57C2.07 27.85 2.34 28.4 2.3 28.54C2.28 28.63 2.29 28.66 2.34 28.64C2.4 28.62 2.45 28.47 2.48 28.3C2.57 27.74 2.9 27.4 3.52 27.22C4.08 27.04 4.87 27.33 4.87 27.7L4.87 27.88L4.61 27.74C4.3 27.58 3.77 27.6 3.53 27.79C3.24 28.01 3.16 28.21 3.16 28.77C3.16 29.3 3.24 29.59 3.44 29.84C3.55 29.97 3.55 29.97 3.51 29.81C3.48 29.72 3.45 29.46 3.43 29.23C3.41 28.87 3.42 28.78 3.55 28.59C3.63 28.47 3.83 28.3 3.99 28.21C4.27 28.07 4.3 28.07 4.47 28.16C4.75 28.3 4.82 28.29 4.95 28.08C5.08 27.84 5.09 27.51 4.95 27.02C4.82 26.51 4.54 26.07 4.1 25.65C3.68 25.25 3.38 25.11 2.96 25.11C2.7 25.11 2.65 25.13 2.65 25.23C2.65 25.3 2.71 25.4 2.77 25.45C3.03 25.64 2.98 25.93 2.64 26.14C2.27 26.37 1.83 26.04 1.83 25.52C1.83 25.12 1.97 24.89 2.36 24.66C2.85 24.38 3.26 24.39 3.78 24.71C4.28 25.01 4.77 25.5 5.3 26.24C5.88 27.05 5.92 27.09 6.36 27.54C6.91 28.1 7.7 28.5 8.4 28.57C8.62 28.6 8.82 28.65 8.83 28.69C8.84 28.73 8.77 28.82 8.68 28.88C8.53 28.99 8.38 29.01 7.74 29.01C7.03 29.01 6.95 28.99 6.45 28.79C6.05 28.62 5.8 28.56 5.47 28.55C4.96 28.54 4.87 28.56 4.87 28.72C4.87 28.77 4.8 28.91 4.73 29C4.61 29.16 4.58 29.17 4.29 29.13L3.98 29.09L3.98 29.32C3.98 29.44 4.01 29.62 4.05 29.72C4.13 29.94 4.66 30.58 4.75 30.58C4.8 30.58 4.87 30.62 4.92 30.67C5.18 30.89 5.65 31 6.35 30.99C7.02 30.98 7.21 30.94 7.49 30.76C7.74 30.6 8.19 30.23 8.31 30.07C8.56 29.77 8.91 29.14 8.91 28.99C8.91 28.78 9.18 28.79 9.71 29.04C10.27 29.3 10.68 29.39 11.25 29.34C12.07 29.28 12.72 28.87 13.05 28.2C13.22 27.85 13.25 27.46 13.12 27.28C13.01 27.14 12.91 27.14 12.84 27.29C12.74 27.47 12.29 27.51 12.1 27.34C11.9 27.18 11.89 26.76 12.08 26.55C12.24 26.37 12.58 26.35 12.85 26.49C12.98 26.56 13.02 26.57 13.02 26.5C13.02 26.46 12.94 26.35 12.85 26.26C12.42 25.85 11.89 25.77 11.52 26.05C11.31 26.22 11.24 26.49 11.38 26.64C11.48 26.73 11.4 26.85 11.24 26.85C11.04 26.85 10.81 26.57 10.81 26.3C10.81 26.05 10.96 25.69 11.07 25.69C11.22 25.69 11.07 25.54 10.85 25.46C10.44 25.32 10.33 25.16 10.21 24.53C10.09 23.85 10.09 23.89 10.2 23.89C10.34 23.89 10.48 24.09 10.57 24.43C10.61 24.6 10.69 24.76 10.75 24.79C10.81 24.82 11.12 24.9 11.43 24.98C12.51 25.21 13.24 25.76 13.55 26.55C13.65 26.82 13.72 27.1 13.72 27.31C13.72 27.51 13.74 27.62 13.78 27.59C13.82 27.57 13.84 27.41 13.84 27.24C13.84 26.66 14.13 26.04 14.58 25.61L14.84 25.38L14.35 25.41C13.89 25.45 13.85 25.44 13.79 25.31C13.72 25.19 13.65 25.18 13.31 25.18C12.62 25.18 11.7 24.72 11 24.05C10.33 23.39 9.97 22.73 9.74 21.68C9.51 20.66 9.89 19.28 10.66 18.33C11.37 17.45 12.39 16.87 13.42 16.76C13.7 16.73 13.78 16.7 13.78 16.61C13.78 16.53 13.67 16.49 13.26 16.42C11.91 16.23 10.46 15.03 9.7 13.5C9.59 13.29 9.46 13.1 9.4 13.09C9.34 13.07 9.29 13.02 9.29 12.97C9.29 12.83 8.97 12.62 8.75 12.62C8.61 12.62 8.49 12.67 8.41 12.76C8.25 12.94 8.25 13.01 8.41 13.22C8.56 13.41 8.84 13.45 8.88 13.3C8.9 13.24 8.92 13.16 8.94 13.11C8.96 13.05 9.03 13.03 9.13 13.05C9.26 13.08 9.29 13.12 9.29 13.28C9.29 13.53 9.2 13.69 8.98 13.81C8.77 13.92 8.43 13.94 8.37 13.84C8.32 13.75 8.09 13.77 8.09 13.87C8.09 13.91 8.13 14.06 8.19 14.18C8.31 14.49 8.31 14.71 8.17 15.07C7.86 15.92 7.18 16.52 5.95 17C5.57 17.15 4.55 17.69 4.22 17.91C3.34 18.5 3.13 18.67 3.27 18.67C3.29 18.67 3.49 18.58 3.69 18.48C4.37 18.12 5.02 18.17 5.66 18.61C6.43 19.14 6.69 19.89 6.37 20.56C6.19 20.94 5.97 21.04 5.69 20.89C5.32 20.7 5.24 20.09 5.57 19.99C5.77 19.93 5.71 19.67 5.44 19.39C5.16 19.11 4.73 18.93 4.35 18.93C3.9 18.93 3.29 19.35 3 19.88C2.66 20.45 2.67 20.91 3.01 21.46C3.12 21.64 3.25 21.87 3.29 21.97C3.37 22.17 3.48 22.2 3.6 22.06C3.64 22.01 3.74 21.95 3.82 21.93C3.96 21.89 3.97 21.86 3.98 21.4C3.98 21.14 3.99 20.89 4.01 20.85C4.07 20.76 4.27 20.78 4.36 20.89C4.46 21.01 4.98 21.38 5.05 21.38C5.08 21.38 5.2 21.33 5.3 21.27C5.54 21.15 5.93 21.19 6.04 21.34C6.16 21.51 6.24 21.45 6.29 21.21C6.36 20.83 6.88 19.77 7.16 19.43C7.46 19.05 7.94 18.72 8.31 18.63C9.09 18.43 9.88 19.26 9.37 19.74C9.14 19.96 8.82 19.93 8.63 19.68C8.53 19.53 8.51 19.48 8.58 19.37C8.8 19.01 8.38 19.21 7.93 19.68C7.57 20.04 7.15 20.74 7 21.21C6.83 21.69 6.85 23.31 7.02 23.91C7.18 24.51 7.59 25.34 7.96 25.84C8.53 26.6 9.89 27.75 10.22 27.75C10.36 27.75 10.31 27.65 10.13 27.57C9.75 27.4 9.36 27.04 9.16 26.68C8.89 26.21 8.8 25.9 8.75 25.34C8.71 24.94 8.73 24.8 8.87 24.37C8.97 24.09 9.07 23.81 9.1 23.75C9.13 23.69 9.18 23.49 9.2 23.31C9.24 23.02 9.23 22.95 9.11 22.79C8.98 22.61 8.98 22.47 9.1 22.47C9.22 22.47 9.56 22.82 9.68 23.07C9.79 23.29 9.8 23.37 9.74 23.57C9.64 23.91 9.65 24.02 9.83 24.28C10.05 24.6 10.06 25.02 9.87 25.27C9.8 25.37 9.73 25.53 9.73 25.63C9.73 25.79 9.77 25.83 9.94 25.87C10.14 25.92 10.14 25.93 10.18 26.37C10.23 27.09 10.38 27.27 11.17 27.65C11.54 27.83 11.59 27.83 11.89 27.76C12.07 27.72 12.25 27.69 12.3 27.69C12.47 27.69 12.38 27.91 12.15 28.08C11.74 28.37 11.42 28.46 10.81 28.46C9.77 28.46 8.77 28.16 7.94 27.6C7.39 27.22 7.3 27.15 6.02 25.98C4.28 24.4 3.86 24.14 3.01 24.14C2.02 24.14 1.52 24.58 1.52 25.43C1.52 25.92 1.63 26.21 1.9 26.42C2.17 26.62 2.5 26.69 2.83 26.6C3.16 26.51 3.31 26.33 3.32 25.99C3.34 25.84 3.34 25.7 3.34 25.67C3.36 25.55 3.55 25.65 3.63 25.82C3.77 26.08 3.75 26.25 3.57 26.57C3.34 26.96 2.87 27.24 2.41 27.24C2 27.24 1.69 27.08 1.28 26.67C0.78 26.15 0.63 25.45 0.88 24.79C1.05 24.36 1.05 24.27 0.85 24.27C0.76 24.27 0.66 24.22 0.6 24.13C0.52 23.99 0.52 23.94 0.6 23.65C0.8 22.96 1.43 22.25 2.1 21.93C2.23 21.87 2.34 21.79 2.34 21.74C2.34 21.7 2.25 21.49 2.15 21.28C1.94 20.85 1.9 20.34 2.03 19.78C2.12 19.39 2.18 19.24 2.5 18.74C3.1 17.8 4.1 17.04 5.66 16.35C6.57 15.95 7.19 15.48 7.4 15.03C7.57 14.66 7.62 14.36 7.53 14.36C7.49 14.36 7.46 14.43 7.46 14.51C7.46 14.62 7.41 14.68 7.32 14.71C7.06 14.78 6.96 14.74 6.73 14.54C6.55 14.38 6.51 14.3 6.51 14.1C6.51 13.64 6.97 13.34 7.53 13.43C7.75 13.47 7.77 13.46 7.77 13.34C7.77 13.26 7.75 13.19 7.71 13.17C7.52 13.04 7.76 12.34 8.07 12.12C8.65 11.71 9.25 11.83 9.83 12.51C10.1 12.82 10.49 13.6 10.49 13.82C10.49 13.87 10.52 13.91 10.56 13.91C10.6 13.91 10.61 13.78 10.58 13.53C10.54 13.19 10.56 13.12 10.71 12.9C10.87 12.65 10.9 12.51 10.83 12.25C10.8 12.14 10.73 12.1 10.45 12.07C10.05 12.01 10.01 11.9 10.33 11.74C10.52 11.65 10.59 11.64 10.81 11.72C10.95 11.76 11.08 11.78 11.11 11.76C11.14 11.73 11.16 11.45 11.15 11.13C11.15 10.82 11.16 10.56 11.17 10.56C11.17 10.56 11.28 10.62 11.39 10.69C11.53 10.77 11.71 10.82 11.92 10.82L12.24 10.82L12.24 11.28C12.23 11.54 12.26 11.8 12.29 11.86C12.36 12.01 12.18 12.01 11.92 11.88C11.83 11.83 11.64 11.78 11.53 11.78C11.35 11.78 11.31 11.81 11.31 11.92C11.31 12 11.38 12.14 11.47 12.25C11.6 12.4 11.63 12.5 11.63 12.81C11.63 13.04 11.57 13.32 11.47 13.59C11.29 14.06 11.26 14.56 11.41 14.68C11.46 14.73 11.5 14.78 11.5 14.82C11.5 14.89 11.81 15.34 11.9 15.4C12.03 15.48 12.08 15.38 11.98 15.26C11.91 15.19 11.86 14.98 11.84 14.76C11.81 14.38 11.81 14.38 12.04 14.15C12.27 13.92 12.39 13.88 12.67 13.89C13.2 13.94 13.44 14.67 13 14.88C12.86 14.94 12.8 14.93 12.61 14.82C12.33 14.65 12.33 14.65 12.33 14.8C12.33 14.98 12.51 15.32 12.64 15.39C12.88 15.52 13.21 15.47 13.41 15.27C13.58 15.09 13.59 15.05 13.59 14.52C13.59 14.1 13.56 13.91 13.47 13.72C13.27 13.33 12.84 13.01 12.19 12.75C12 12.68 11.95 12.5 12.09 12.47C12.13 12.45 12.34 12.39 12.55 12.33C13.18 12.15 13.4 11.89 13.4 11.3C13.4 10.62 13.15 10.43 12.26 10.43C11.64 10.43 11.4 10.35 11.23 10.1C11.17 10.02 11.12 9.88 11.12 9.81C11.12 9.68 11.09 9.66 10.88 9.66C10.66 9.66 10.62 9.68 10.61 9.83C10.59 9.92 10.53 10.04 10.45 10.09C10.34 10.17 10.3 10.16 10.16 10.04C9.95 9.88 9.94 9.71 10.12 9.46C10.34 9.14 10.71 8.98 11.25 8.98C11.83 8.98 12.26 9.1 12.67 9.37C13.04 9.61 13.49 10.06 13.63 10.32C13.7 10.47 13.74 10.49 13.82 10.43C13.89 10.36 13.89 10.33 13.77 10.17C13.7 10.06 13.62 9.97 13.59 9.95C13.46 9.87 13.53 9.58 13.71 9.39C13.94 9.16 14.06 9.16 14.28 9.39L14.46 9.57L14.67 9.39C14.96 9.14 15.26 8.98 15.66 8.89C15.97 8.8 15.98 8.79 15.86 8.71C15.58 8.51 15.82 8.1 16.28 8.01L16.49 7.97L16.22 7.73C16.07 7.6 15.88 7.44 15.8 7.35C15.59 7.15 15.28 7.08 14.85 7.13C14.46 7.17 14.15 7.06 14.03 6.83C14 6.76 13.97 6.46 13.97 6.15C13.97 5.79 13.93 5.51 13.87 5.36L13.77 5.12L13.68 5.28C13.63 5.38 13.6 5.65 13.59 6.06C13.59 6.88 13.54 6.92 12.74 6.92C12.43 6.93 12.12 6.95 12.07 6.99C12.01 7.02 11.79 7.22 11.57 7.42C11.08 7.87 10.76 8 10.37 7.88C10.06 7.79 9.84 7.6 9.73 7.33C9.64 7.1 9.69 6.89 9.9 6.64C10.09 6.4 10.4 6.37 10.62 6.56C10.74 6.66 10.77 6.73 10.76 6.98C10.74 7.39 10.85 7.37 11.22 6.9C11.48 6.59 11.88 6.23 12.07 6.17C12.14 6.14 12.03 5.35 11.95 5.24C11.91 5.2 11.9 5.15 11.93 5.13C11.99 5.06 12.26 5.08 12.26 5.15C12.26 5.18 12.36 5.23 12.48 5.25C12.6 5.27 12.72 5.32 12.74 5.35C12.83 5.51 13 5.38 13.17 5.04C13.37 4.6 13.38 4.47 13.2 4.41C13.05 4.36 13.01 4.39 12.93 4.66C12.81 5.04 12.43 5.09 12.18 4.75C12.07 4.6 12.07 4.58 12.16 4.39C12.33 4.06 12.62 3.9 13.02 3.9C13.25 3.9 13.43 3.94 13.54 4.02C13.64 4.08 13.73 4.12 13.75 4.1C13.81 4.04 13.61 3.36 13.46 3.16C13.39 3.05 13.2 2.88 13.05 2.79C12.89 2.7 12.77 2.61 12.77 2.58C12.77 2.51 12.93 2.45 13.08 2.45C13.2 2.45 13.42 2.23 13.49 2.03C13.54 1.91 13.56 1.69 13.69 0.61C13.72 0.4 13.76 0.17 13.79 0.11C13.86 -0.03 13.99 -0.03 14.09 0.1ZM13.92 1.24C13.94 2.31 13.94 2.38 14.08 2.52L14.21 2.68L14.06 2.79C13.92 2.9 13.91 2.96 13.91 3.46C13.91 3.93 13.92 3.99 13.99 3.91C14.04 3.86 14.11 3.7 14.15 3.57C14.22 3.31 14.56 2.92 14.84 2.78C15.04 2.67 15.02 2.46 14.81 2.41C14.71 2.39 14.6 2.36 14.56 2.35C14.37 2.29 14.27 1.96 14.16 1.12C13.99 -0.2 13.89 -0.15 13.92 1.24ZM13.75 2.32C13.69 2.32 13.65 2.71 13.7 2.8C13.74 2.88 13.76 2.83 13.77 2.61C13.77 2.45 13.77 2.32 13.75 2.32ZM13.94 2.59C13.92 2.57 13.91 2.61 13.91 2.68C13.91 2.75 13.93 2.77 13.95 2.72C13.97 2.67 13.96 2.61 13.94 2.59ZM14.08 4.02C13.91 4.13 13.91 4.16 13.91 4.63C13.91 4.93 13.94 5.18 14 5.28C14.06 5.38 14.09 5.64 14.09 6C14.09 6.61 14.17 6.86 14.37 6.93C14.45 6.95 14.71 6.97 14.95 6.96C15.52 6.94 15.69 7.01 16.12 7.44C16.66 7.98 17.09 8.1 17.62 7.86C17.88 7.73 18.14 7.36 18.14 7.1C18.14 6.96 17.91 6.57 17.77 6.46C17.61 6.34 17.29 6.36 17.1 6.52C16.95 6.64 16.93 6.68 16.95 6.96C16.98 7.24 16.97 7.26 16.87 7.21C16.81 7.17 16.7 7.05 16.62 6.92C16.45 6.63 15.94 6.18 15.8 6.18C15.69 6.18 15.68 6.14 15.71 5.87C15.73 5.7 15.78 5.47 15.81 5.36C15.85 5.25 15.86 5.13 15.83 5.09C15.78 5 15.6 5.01 15.46 5.12C15.39 5.17 15.28 5.22 15.21 5.22C15.14 5.22 15.03 5.26 14.97 5.32C14.9 5.38 14.85 5.41 14.83 5.4C14.59 4.98 14.43 4.58 14.49 4.51C14.61 4.39 14.71 4.44 14.75 4.63C14.8 4.89 14.95 5.02 15.21 5.02C15.77 5.02 15.83 4.29 15.3 3.97C14.95 3.76 14.43 3.79 14.08 4.02ZM12.65 5.9C12.62 5.87 12.57 5.88 12.55 5.92C12.53 5.95 12.54 5.99 12.57 6.01C12.6 6.04 12.65 6.03 12.67 5.99C12.69 5.96 12.68 5.92 12.65 5.9ZM17 8.14C16.48 8.12 16.11 8.18 15.95 8.32C15.84 8.41 15.85 8.47 15.97 8.59C16.04 8.67 16.2 8.69 16.64 8.69C17.27 8.69 17.5 8.77 17.93 9.12C18.3 9.42 18.52 9.9 18.52 10.39L18.51 10.78L18.38 10.6C18.2 10.35 17.99 10.28 17.73 10.39C17.48 10.5 17.38 10.66 17.38 11C17.38 11.66 18.2 12.01 18.77 11.59C19.26 11.24 19.39 10.27 19.05 9.57C18.8 9.03 18.34 8.54 17.9 8.33C17.62 8.2 17.43 8.16 17 8.14ZM14.64 9.63C14.45 9.82 14.27 9.98 14.26 9.98C14.25 9.98 14.25 9.91 14.27 9.83C14.3 9.63 14.2 9.43 14.03 9.38C13.91 9.35 13.91 9.37 13.91 9.77C13.91 10.15 13.91 10.18 14.03 10.14C14.19 10.09 14.19 10.16 14.03 10.37C13.92 10.51 13.91 10.63 13.91 11.42C13.91 12.27 13.91 12.31 14.06 12.48L14.22 12.65L14.06 12.81C13.91 12.98 13.91 12.99 13.91 14.16C13.91 15.14 13.92 15.36 14 15.41C14.08 15.48 14.08 15.5 14 15.67C13.95 15.77 13.91 15.99 13.91 16.17L13.91 16.48L14.22 16.48C14.93 16.48 15.47 16.27 16.31 15.68C17.05 15.14 17.67 14.41 18.11 13.53C18.19 13.37 18.37 13.11 18.5 12.95C18.7 12.74 18.8 12.68 18.97 12.68C19.21 12.68 19.4 12.84 19.4 13.03C19.4 13.14 19.1 13.41 19 13.37C18.97 13.36 18.91 13.26 18.89 13.14C18.84 12.97 18.81 12.94 18.69 12.98C18.49 13.04 18.46 13.08 18.42 13.31C18.39 13.48 18.41 13.55 18.57 13.71C18.82 13.97 19.04 14.02 19.39 13.89C19.68 13.78 19.7 13.79 19.56 14.04C19.35 14.42 19.51 15.3 19.87 15.79C20.16 16.17 21.24 16.93 21.51 16.93C21.58 16.93 22.53 17.41 23.37 17.86C23.68 18.03 23.87 18.2 23.82 18.25C23.8 18.27 23.67 18.25 23.52 18.21C22.79 18.05 21.69 18.59 21.36 19.28C21.26 19.52 21.23 19.66 21.25 20C21.26 20.25 21.29 20.5 21.33 20.57C21.35 20.64 21.31 20.6 21.25 20.47C21.18 20.35 21.14 20.22 21.15 20.17C21.17 20.13 21.15 20.09 21.12 20.09C21.09 20.09 21 19.99 20.95 19.86C20.78 19.5 20.21 18.92 19.87 18.74C19.08 18.33 18.14 18.72 18.14 19.44C18.14 19.65 18.4 19.89 18.68 19.93C18.9 19.97 18.96 19.95 19.11 19.79C19.23 19.67 19.28 19.56 19.26 19.47C19.19 19.1 19.7 19.53 20.16 20.21C20.75 21.13 20.82 21.36 20.81 22.5C20.81 23.38 20.79 23.52 20.64 24.02C20.42 24.71 20.06 25.38 19.59 25.97C19.21 26.46 18.62 27.04 18.53 27.04C18.49 27.04 18.44 27.09 18.39 27.15C18.34 27.2 18.25 27.27 18.18 27.31C18.1 27.34 18.11 27.32 18.22 27.24C18.32 27.16 18.44 27.01 18.49 26.91C18.54 26.82 18.61 26.69 18.66 26.64C18.8 26.5 18.96 26.03 19.02 25.59C19.09 25.06 19.02 24.55 18.77 23.91C18.55 23.35 18.53 23.01 18.71 22.79C18.85 22.63 18.85 22.61 18.78 22.48C18.71 22.37 18.53 22.43 18.32 22.63C18.01 22.93 17.93 23.15 17.98 23.65C18.02 24.07 18.01 24.11 17.86 24.27C17.63 24.51 17.62 24.93 17.82 25.27C17.98 25.54 17.98 25.77 17.79 25.81C17.59 25.84 17.51 26.01 17.51 26.41C17.51 26.92 17.32 27.22 16.86 27.45C16.4 27.68 16.24 27.71 15.76 27.65C15.42 27.62 15.36 27.6 15.46 27.54C15.75 27.38 15.86 27.22 15.86 26.95C15.86 26.61 15.69 26.41 15.36 26.36C14.79 26.26 15.26 25.93 15.86 26C16.12 26.04 16.22 26.08 16.33 26.22C16.45 26.39 16.45 26.4 16.34 26.56C16.26 26.69 16.25 26.75 16.31 26.82C16.52 27.07 17 26.71 17 26.3C17 26.06 16.85 25.69 16.75 25.69C16.6 25.69 16.7 25.57 16.88 25.53C17.09 25.48 17.35 25.28 17.45 25.1C17.55 24.9 17.7 23.93 17.64 23.87C17.48 23.7 17.13 24.1 17.13 24.45C17.13 24.67 16.89 24.8 16.33 24.92C15.28 25.14 14.57 25.64 14.21 26.39C14.01 26.8 14 26.85 14 27.59C14 28.27 14.02 28.39 14.15 28.67C14.4 29.19 14.81 29.59 15.35 29.86C15.8 30.07 15.88 30.1 16.5 30.12C17.08 30.15 17.22 30.13 17.65 29.98C17.93 29.89 18.17 29.81 18.2 29.81C18.23 29.81 18.36 29.98 18.48 30.19C18.9 30.9 19.64 31.47 20.45 31.71C20.85 31.83 22.09 31.83 22.56 31.72C23.25 31.54 23.54 31.4 24.18 30.94C24.92 30.4 25.53 29.6 26.29 28.21C26.34 28.12 26.41 28.03 26.43 28.01C26.45 27.99 26.48 27.93 26.5 27.88C26.52 27.82 26.54 27.85 26.54 27.96C26.55 28.29 27.02 28.45 27.31 28.21C27.42 28.12 27.46 28.02 27.46 27.82C27.46 27.13 26.5 26.93 25.92 27.51C25.67 27.75 25.38 28.31 25.4 28.49C25.41 28.6 25.4 28.6 25.35 28.52C25.31 28.47 25.28 28.33 25.28 28.21C25.28 27.94 25.04 27.54 24.75 27.37C24.25 27.06 23.42 27.04 23.08 27.34C22.84 27.54 22.75 27.53 22.75 27.31C22.75 26.98 23.17 26.22 23.59 25.79C24.04 25.34 24.34 25.18 24.75 25.18C25.08 25.18 25.14 25.25 24.93 25.39C24.81 25.48 24.78 25.55 24.78 25.75C24.78 25.95 24.81 26.03 24.96 26.13C25.43 26.48 25.98 26.14 25.98 25.5C25.98 24.61 24.95 24.13 24.04 24.6C23.49 24.88 23.03 25.34 22.32 26.28C21.98 26.75 21.54 27.29 21.36 27.47C20.74 28.07 19.91 28.5 19.28 28.55C18.77 28.59 18.68 28.75 19.08 28.95C19.27 29.05 19.45 29.07 20.07 29.06C20.72 29.06 20.87 29.04 21.14 28.92C21.64 28.68 22 28.59 22.39 28.59C22.75 28.59 22.75 28.59 22.85 28.82C22.9 28.95 22.99 29.1 23.06 29.14C23.18 29.24 23.49 29.26 23.54 29.17C23.63 29.03 23.7 29.11 23.7 29.33C23.7 29.63 23.56 29.95 23.37 30.11C23.27 30.18 23.22 30.27 23.25 30.29C23.27 30.33 23.25 30.33 23.22 30.3C23.16 30.27 23.18 30.19 23.3 30.01C23.42 29.81 23.44 29.73 23.39 29.6C23.27 29.28 22.92 29.21 22.7 29.44C22.55 29.62 22.54 29.67 22.64 30.01C22.7 30.21 22.74 30.26 22.86 30.26C23.04 30.26 23.04 30.33 22.87 30.54C22.79 30.66 22.7 30.71 22.62 30.69C22.55 30.67 22.5 30.68 22.5 30.71C22.5 30.78 22.08 30.89 21.68 30.94C21.34 30.97 21.17 30.92 21.15 30.8C21.15 30.77 21.12 30.75 21.1 30.76C21.04 30.78 21.03 30.69 21.09 30.64C21.1 30.61 21.17 30.65 21.24 30.72C21.33 30.81 21.45 30.84 21.7 30.84C21.89 30.84 22.07 30.81 22.09 30.78C22.11 30.74 22.2 30.71 22.29 30.71C22.37 30.71 22.47 30.65 22.51 30.59C22.55 30.53 22.62 30.48 22.66 30.49C22.7 30.51 22.78 30.48 22.85 30.43C22.97 30.33 22.97 30.33 22.82 30.33C22.71 30.33 22.63 30.26 22.55 30.13C22.48 30 22.39 29.94 22.3 29.94C22.06 29.94 21.99 30.03 21.98 30.33L21.98 30.61L21.88 30.39C21.76 30.13 21.49 30.06 21.29 30.24C21.17 30.35 21.17 30.35 21.07 30.21C21.02 30.12 20.91 30.07 20.8 30.07C20.67 30.07 20.6 30.12 20.52 30.29C20.47 30.42 20.42 30.55 20.42 30.58C20.42 30.68 20.78 30.85 20.88 30.8C20.94 30.78 20.98 30.8 20.98 30.83C20.98 30.94 20.73 30.92 20.43 30.77C20.16 30.64 20.16 30.64 20.28 30.51C20.45 30.36 20.52 30.08 20.43 29.95C20.35 29.82 20.12 29.78 20 29.88C19.88 29.98 19.88 30.26 20.01 30.36C20.07 30.4 20.11 30.47 20.09 30.53C20.03 30.71 19.25 29.82 19 29.28C18.72 28.7 18.68 28.68 18.06 28.97C17.29 29.32 16.8 29.41 16.29 29.3C15.57 29.12 15.03 28.73 14.76 28.19C14.59 27.83 14.56 27.56 14.67 27.35C14.74 27.22 14.74 27.22 14.87 27.35C14.95 27.42 15.07 27.49 15.14 27.51C15.23 27.52 15.27 27.58 15.28 27.74C15.3 27.88 15.37 27.99 15.5 28.1C15.9 28.4 16.14 28.46 17.03 28.46C17.9 28.46 18.54 28.33 19.21 28.03C19.71 27.81 20.57 27.15 21.58 26.21C23.47 24.47 23.9 24.19 24.68 24.18C25.43 24.18 25.93 24.46 26.14 25.01C26.46 25.88 25.66 26.86 24.89 26.53C24.59 26.4 24.5 26.28 24.46 25.93C24.44 25.65 24.41 25.59 24.3 25.59C24.22 25.59 24.14 25.68 24.06 25.84C23.95 26.05 23.95 26.13 24.01 26.34C24.23 27.09 25.17 27.51 25.9 27.17C26.27 27 26.78 26.5 26.87 26.22C26.91 26.08 26.96 25.95 27 25.92C27.03 25.88 27.06 25.7 27.06 25.5C27.07 25.19 27.08 25.18 27.1 25.41C27.12 25.66 27.14 25.68 27.32 25.7C27.63 25.74 27.74 25.7 27.79 25.52C27.82 25.41 27.79 25.32 27.68 25.2C27.57 25.08 27.55 25.03 27.61 24.97C27.84 24.73 27.51 24.31 27.21 24.45C27.12 24.5 27.05 24.58 27.05 24.66C27.05 24.87 26.94 24.81 26.83 24.56C26.78 24.43 26.74 24.31 26.74 24.31C26.74 24.3 26.8 24.31 26.88 24.32C27.12 24.36 27.27 24.14 27.23 23.8C27.15 23.14 26.51 22.29 25.83 21.96L25.43 21.77L25.62 21.38C26.05 20.49 25.87 19.46 25.1 18.4C24.53 17.63 23.67 17.02 22.13 16.32C21.17 15.87 20.64 15.47 20.38 14.99C20.25 14.73 20.28 14.63 20.47 14.75C20.77 14.94 21.3 14.53 21.3 14.09C21.3 13.6 20.74 13.24 20.22 13.39C20.1 13.43 20 13.46 20 13.46C19.99 13.46 20.04 13.33 20.09 13.17C20.18 12.92 20.18 12.87 20.07 12.6C20.02 12.44 19.89 12.23 19.8 12.14C19.47 11.8 18.75 11.76 18.27 12.07C17.99 12.25 17.58 12.77 17.41 13.17L17.3 13.42L17.26 13.22C17.23 13.12 17.15 12.94 17.07 12.83C16.98 12.7 16.94 12.57 16.95 12.42C16.97 12.19 16.98 12.19 17.53 12.07C17.77 12.02 17.73 11.85 17.43 11.7C17.23 11.6 17.16 11.59 16.97 11.65C16.85 11.69 16.72 11.71 16.69 11.69C16.59 11.62 16.56 11.24 16.64 10.93C16.73 10.53 16.65 10.42 16.39 10.6C16.29 10.67 16.05 10.73 15.84 10.75L15.47 10.78L15.46 11.41C15.45 12.1 15.47 12.14 15.83 11.94C16 11.85 16.43 11.81 16.43 11.89C16.43 11.91 16.36 12.02 16.26 12.14C16.04 12.45 16 12.93 16.15 13.4C16.21 13.59 16.29 13.78 16.31 13.82C16.34 13.86 16.36 13.9 16.34 13.91C16.33 13.93 16.31 14.12 16.29 14.33C16.26 14.76 16.16 15 16.03 15C15.96 15 15.95 14.94 15.97 14.76C16.04 14.26 15.66 13.84 15.14 13.84C14.9 13.84 14.81 13.88 14.66 14.03C14.27 14.43 14.51 15.07 14.99 14.93C15.23 14.87 15.33 14.93 15.27 15.11C15.23 15.25 14.92 15.45 14.74 15.45C14.54 15.45 14.25 15.11 14.2 14.83C14.06 13.94 14.47 13.26 15.36 12.9C15.52 12.85 15.68 12.75 15.73 12.71C15.86 12.59 15.78 12.44 15.57 12.39C15.18 12.3 14.71 12.08 14.57 11.9C14.44 11.74 14.41 11.64 14.41 11.33C14.41 10.86 14.44 10.78 14.71 10.62C14.89 10.5 15.02 10.48 15.45 10.48C15.73 10.49 16.05 10.46 16.16 10.42C16.4 10.35 16.69 10.03 16.69 9.85C16.69 9.55 17.01 9.63 17.12 9.95C17.19 10.14 17.23 10.17 17.41 10.17C17.98 10.17 17.9 9.44 17.29 9.1C16.57 8.7 15.34 8.94 14.64 9.63ZM17.72 9.27C17.96 9.56 18.01 9.81 17.89 10.04C17.84 10.14 17.86 10.17 18 10.19C18.1 10.21 18.22 10.24 18.29 10.27C18.36 10.3 18.39 10.29 18.39 10.21C18.39 10.04 18.08 9.46 17.9 9.29C17.58 8.99 17.48 8.99 17.72 9.27ZM11.76 9.6C11.76 9.69 12.22 9.98 12.37 9.98C12.58 9.98 12.55 9.81 12.33 9.69C11.91 9.47 11.76 9.45 11.76 9.6ZM16.81 9.95C16.81 10.01 16.77 10.12 16.72 10.2C16.63 10.33 16.63 10.36 16.72 10.43C16.81 10.5 16.81 10.6 16.78 10.98C16.76 11.24 16.76 11.46 16.79 11.47C16.82 11.49 16.95 11.49 17.07 11.48L17.29 11.45L17.27 11.07C17.25 10.79 17.27 10.64 17.34 10.53C17.44 10.38 17.43 10.37 17.25 10.31C17.12 10.26 17.03 10.17 16.98 10.04C16.91 9.84 16.81 9.79 16.81 9.95ZM14.75 10.79C14.56 10.93 14.54 11 14.54 11.25C14.54 11.62 14.7 11.89 15.01 12.04C15.33 12.19 15.4 12.2 15.3 12.07C15.23 11.99 15.23 11.92 15.29 11.71C15.34 11.55 15.35 11.32 15.33 11.13C15.3 10.91 15.31 10.78 15.36 10.72C15.5 10.54 14.98 10.6 14.75 10.79ZM11.7 11.18C11.63 11.13 11.49 11.29 11.55 11.35C11.62 11.43 11.76 11.4 11.76 11.31C11.76 11.25 11.73 11.2 11.7 11.18ZM17.96 11.92C17.85 11.86 17.83 11.87 17.81 11.98C17.79 12.14 17.7 12.2 17.35 12.28C17.05 12.34 17 12.51 17.19 12.77L17.33 12.94L17.52 12.67C17.63 12.52 17.8 12.3 17.9 12.19C18.08 12 18.09 11.99 17.96 11.92ZM15.81 12.1L15.61 12.21L15.78 12.28C15.86 12.33 15.95 12.36 15.95 12.35C15.96 12.34 16.02 12.25 16.07 12.15C16.2 11.94 16.14 11.93 15.81 12.1ZM14.02 12.65L13.87 12.48C13.73 12.32 13.72 12.31 13.63 12.42C13.49 12.57 13.5 12.77 13.64 12.89C13.73 12.98 13.76 12.97 13.88 12.82L14.02 12.65ZM11.12 12.81C11.12 12.92 11.07 13.12 11 13.25C10.94 13.38 10.87 13.57 10.87 13.68C10.83 13.92 10.98 13.97 11.03 13.73C11.05 13.64 11.12 13.42 11.2 13.26C11.27 13.1 11.31 12.9 11.3 12.81C11.27 12.57 11.12 12.57 11.12 12.81ZM15.93 13.13L15.9 12.83L15.49 13.01C15.02 13.21 14.64 13.5 14.47 13.8C14.3 14.09 14.32 14.15 14.52 13.95C14.92 13.57 15.42 13.59 15.84 14L16.12 14.27L16.12 14.03C16.12 13.89 16.09 13.71 16.05 13.6C16.01 13.51 15.96 13.29 15.93 13.13ZM19.02 12.81C18.92 12.81 18.92 12.84 18.98 13.01C19.06 13.23 19.12 13.25 19.21 13.08C19.25 13 19.25 12.94 19.2 12.89C19.16 12.85 19.08 12.81 19.02 12.81ZM18.2 13.65C18.2 13.8 17.43 14.87 17.05 15.23C16.4 15.88 15.3 16.55 14.9 16.55C14.71 16.55 14.83 16.64 15.14 16.73C15.49 16.82 15.49 16.82 15.49 16.68C15.49 16.47 15.74 16.34 15.99 16.42C16.48 16.56 17.15 16.44 17.68 16.12C18.1 15.86 18.2 15.83 18.34 15.9C18.49 15.99 18.49 16.2 18.33 16.58C18.23 16.82 18.2 17.02 18.2 17.56C18.2 17.94 18.22 18.36 18.24 18.49L18.29 18.74L18.45 18.61C18.65 18.47 19.17 18.34 19.31 18.39C19.4 18.43 19.4 18.41 19.33 18.26C19.24 18.05 19.32 17.94 19.69 17.77C19.98 17.64 20.31 17.29 20.38 17.05C20.41 16.97 20.47 16.85 20.53 16.79C20.62 16.68 20.62 16.66 20.47 16.57C20.39 16.51 20.16 16.3 19.97 16.1C19.5 15.62 19.24 14.99 19.3 14.45L19.33 14.1L19.11 14.1C18.84 14.1 18.57 13.97 18.41 13.75C18.27 13.57 18.2 13.54 18.2 13.65ZM14.54 14.96C14.32 14.77 14.28 14.84 14.48 15.09C14.61 15.27 14.93 15.32 15.01 15.2C15.03 15.16 14.98 15.13 14.89 15.13C14.81 15.13 14.65 15.05 14.54 14.96ZM13.76 15.5C13.74 15.46 13.73 15.49 13.73 15.58C13.73 15.67 13.74 15.7 13.76 15.66C13.77 15.62 13.77 15.54 13.76 15.5ZM17.77 16.23C17.33 16.52 16.87 16.63 16.26 16.59C15.91 16.57 15.73 16.59 15.68 16.64C15.59 16.75 15.66 16.81 16.15 17.13C16.73 17.52 17.17 17.91 17.46 18.31C18.05 19.1 18.07 19.07 18.06 17.82C18.05 16.92 18.06 16.8 18.19 16.5C18.27 16.31 18.32 16.13 18.3 16.1C18.23 15.99 18.06 16.03 17.77 16.23ZM14.09 16.68L13.91 16.68L13.91 19.48L13.01 20.23L13.14 20.37C13.42 20.68 13.24 20.97 12.72 21.04C12.33 21.08 12.12 20.97 11.96 20.62C11.88 20.44 11.71 20.3 11.23 20C10.9 19.79 10.61 19.63 10.59 19.64C10.57 19.66 10.69 20.13 10.85 20.7C11.02 21.36 11.12 21.87 11.12 22.1L11.12 22.47L13.91 22.47L13.91 25.3L14.3 25.27C15.43 25.16 16.45 24.6 17.16 23.69C17.68 23.02 17.93 22.43 18.08 21.49C18.18 20.73 18.04 19.86 17.66 19.1C17.07 17.89 15.93 17.02 14.61 16.75C14.43 16.71 14.2 16.68 14.09 16.68ZM20.76 16.8C20.71 16.8 20.6 16.97 20.51 17.16C20.33 17.53 20.09 17.76 19.7 17.93C19.28 18.11 19.39 18.26 20.09 18.47C20.5 18.59 20.57 18.65 20.74 18.9C20.86 19.06 20.99 19.19 21.05 19.19C21.17 19.19 21.34 18.96 21.4 18.71C21.44 18.54 21.89 18.09 22.02 18.09C22.06 18.09 22.17 18.02 22.28 17.94C22.44 17.81 22.46 17.77 22.38 17.68C22.33 17.62 22.2 17.58 22.07 17.58C21.76 17.58 21.35 17.36 21.09 17.06C20.96 16.92 20.81 16.8 20.76 16.8ZM21.24 17.03C21.24 17.11 21.74 17.38 21.89 17.38C22.01 17.38 22.06 17.36 22.03 17.33C21.95 17.26 21.24 16.99 21.24 17.03ZM23.29 18L22.91 17.79C22.53 17.59 22.52 17.58 22.55 17.73C22.57 17.84 22.52 17.93 22.37 18.05C22.27 18.14 22.15 18.22 22.12 18.22C22.02 18.22 21.64 18.54 21.59 18.65C21.57 18.7 21.66 18.66 21.8 18.55C22.11 18.3 22.56 18.1 22.97 18.04L23.29 18ZM20.34 18.88C20.52 19.02 20.74 19.26 20.84 19.39C21 19.63 21.02 19.64 21.09 19.53C21.19 19.4 21.2 19.29 21.11 19.35C21.02 19.41 20.76 19.22 20.63 18.99C20.57 18.89 20.43 18.76 20.31 18.7C19.99 18.55 20 18.59 20.34 18.88ZM17.96 18.96L17.79 18.96L17.88 19.2L17.98 19.44L18.02 19.26C18.04 19.16 18.07 19.05 18.09 19.02C18.11 18.99 18.05 18.96 17.96 18.96ZM19.64 19.78L19.42 19.57L19.35 19.73C19.29 19.87 19.3 19.9 19.37 19.9C19.66 19.9 20.43 20.97 20.56 21.56C20.6 21.75 20.64 21.81 20.66 21.72C20.69 21.52 20.47 20.99 20.14 20.46C19.99 20.2 19.76 19.9 19.64 19.78ZM18.3 19.95L18.12 19.81L18.17 20.06C18.26 20.67 18.28 21.34 18.21 21.69C18.05 22.45 17.78 23.12 17.46 23.54L17.32 23.74L17.48 23.71C17.58 23.69 17.68 23.72 17.77 23.8C17.91 23.92 17.91 23.92 17.86 23.79C17.69 23.33 17.8 22.95 18.21 22.53C18.43 22.3 18.5 22.27 18.68 22.29C18.86 22.31 18.89 22.3 18.87 22.22C18.77 21.96 18.77 21.76 18.89 21.3C19.06 20.67 19.06 20.53 18.9 20.38C18.83 20.31 18.77 20.22 18.77 20.17C18.77 20.13 18.7 20.09 18.62 20.09C18.54 20.09 18.39 20.02 18.3 19.95ZM18.98 20.13C18.96 20.2 18.99 20.28 19.08 20.33C19.25 20.45 19.25 20.58 19.09 21.15C18.89 21.87 18.91 22.03 19.32 22.83L19.68 23.53L19.68 24.11C19.68 24.72 19.55 25.17 19.27 25.57C19.01 25.95 19.28 26.12 19.58 25.77C19.83 25.46 20.35 24.32 20.45 23.86C20.58 23.21 20.57 22.15 20.42 21.62C20.3 21.15 19.88 20.44 19.58 20.19C19.37 20 19.04 19.97 18.98 20.13ZM5.77 21.6C5.54 21.7 5.37 21.99 5.37 22.28C5.37 22.46 5.44 22.62 5.8 23.32C5.87 23.46 5.87 23.52 5.8 23.62C5.64 23.9 5.44 23.8 4.84 23.15C4.36 22.63 4.23 22.52 4.03 22.49C3.82 22.46 3.77 22.48 3.61 22.66C3.34 22.95 3.26 22.92 3.31 22.54C3.34 22.28 3.34 22.21 3.26 22.21C3.21 22.21 3.15 22.24 3.13 22.27C3.12 22.3 3.01 22.34 2.9 22.37C2.31 22.48 1.57 23.06 1.28 23.62C0.97 24.21 1.02 24.3 1.47 23.93C2.15 23.37 2.86 23.22 3.62 23.48C4.16 23.67 4.96 24.19 5.49 24.7C6.02 25.2 6.17 25.27 6.21 25.03C6.23 24.83 6.54 24.83 6.56 25.03C6.58 25.14 6.54 25.19 6.42 25.24C6.33 25.27 6.26 25.34 6.26 25.38C6.26 25.48 7.14 26.31 8.03 27.07C8.45 27.42 8.72 27.56 8.72 27.44C8.72 27.4 8.7 27.36 8.66 27.36C8.63 27.36 8.38 27.14 8.12 26.86C7.36 26.08 6.66 24.95 6.44 24.13C6.19 23.23 6.12 22.66 6.16 22.07C6.19 21.44 6.18 21.42 5.77 21.6ZM4.68 22.18C4.68 22.26 4.9 22.47 4.99 22.47C5.05 22.47 5.04 22.43 4.93 22.31C4.79 22.16 4.68 22.1 4.68 22.18ZM19.1 22.73C18.99 22.55 18.96 22.53 18.96 22.64C18.96 22.71 18.9 22.82 18.84 22.89C18.68 23.04 18.68 23.15 18.84 23.62C19.06 24.24 19.16 24.61 19.21 24.98L19.25 25.34L19.37 25.08C19.44 24.91 19.49 24.61 19.51 24.24C19.54 23.73 19.52 23.62 19.39 23.31C19.3 23.11 19.17 22.85 19.1 22.73ZM16.93 24.18C16.88 24.25 16.71 24.41 16.54 24.54L16.23 24.79L16.45 24.74C16.83 24.67 16.91 24.61 16.99 24.36C17.07 24.08 17.06 24.03 16.93 24.18ZM9.3 24.47C9.22 24.47 9.18 25.14 9.23 25.59L9.27 25.98L9.31 25.72C9.34 25.58 9.37 25.39 9.39 25.3C9.41 25.21 9.44 25.07 9.46 24.96C9.48 24.86 9.47 24.79 9.42 24.79C9.39 24.79 9.35 24.72 9.35 24.63C9.35 24.54 9.33 24.47 9.3 24.47ZM23.19 24.98C23.18 24.98 22.61 25.48 21.93 26.1C20.75 27.16 19.87 27.87 19.41 28.1C18.49 28.58 16.79 28.81 16 28.54C15.64 28.43 15.07 27.94 15.13 27.8C15.14 27.75 15.07 27.67 14.97 27.6L14.78 27.49L14.82 27.79C14.9 28.32 15.16 28.64 15.8 28.98C16.05 29.11 16.17 29.13 16.72 29.13C17.32 29.13 17.38 29.11 17.97 28.85C18.32 28.7 18.61 28.59 18.63 28.61C18.65 28.63 18.7 28.6 18.74 28.54C18.79 28.47 18.97 28.42 19.28 28.39C19.88 28.32 20.64 27.95 21.15 27.47C21.34 27.29 21.77 26.79 22.08 26.37C22.39 25.94 22.78 25.46 22.93 25.28C23.09 25.12 23.2 24.98 23.19 24.98ZM17.34 25.43C17.24 25.53 17.1 25.63 17.06 25.64C16.99 25.66 16.98 25.7 17.05 25.84C17.09 25.94 17.13 26.15 17.13 26.31C17.13 26.56 17.1 26.64 16.91 26.82C16.67 27.07 16.39 27.11 16.22 26.93C16.1 26.79 16.09 26.62 16.18 26.56C16.29 26.49 16.25 26.28 16.12 26.21C15.97 26.12 15.55 26.12 15.55 26.21C15.55 26.24 15.59 26.27 15.64 26.27C15.69 26.27 15.79 26.35 15.86 26.46C16.01 26.67 16.04 27.25 15.92 27.34C15.75 27.45 16.4 27.47 16.65 27.36C17.19 27.16 17.38 26.89 17.38 26.35C17.38 25.93 17.5 25.69 17.7 25.69C17.85 25.69 17.86 25.57 17.72 25.38C17.6 25.2 17.58 25.21 17.34 25.43ZM24.63 25.3C24.39 25.3 24.33 25.39 24.49 25.5C24.62 25.61 24.62 25.6 24.69 25.46C24.76 25.32 24.75 25.3 24.63 25.3ZM23.55 26.04C23.28 26.37 23.09 26.71 22.98 27.09C22.93 27.24 22.94 27.24 23.08 27.15C23.28 27.02 23.87 26.91 24.07 26.95L24.24 27L24.11 26.84C23.85 26.53 23.75 26.08 23.89 25.81C24.02 25.57 23.84 25.69 23.55 26.04ZM27.32 25.82C27.13 25.82 27.12 25.84 27.12 26.02C27.12 26.13 27.15 26.28 27.18 26.35C27.24 26.44 27.24 26.47 27.18 26.43C27 26.31 26.84 26.73 27 26.9C27.22 27.12 27.54 26.88 27.46 26.57C27.43 26.44 27.45 26.4 27.55 26.37C27.73 26.31 27.79 26.1 27.65 25.94C27.58 25.87 27.46 25.82 27.32 25.82ZM24.65 25.99C24.61 25.89 24.59 25.88 24.59 25.95C24.59 26.1 24.83 26.4 24.95 26.4C25.02 26.4 24.99 26.35 24.88 26.26C24.78 26.19 24.68 26.06 24.65 25.99ZM19.06 26.12C19.01 26.18 19.02 26.33 19.08 26.33C19.11 26.33 19.15 26.29 19.17 26.24C19.21 26.14 19.13 26.05 19.06 26.12ZM9.45 26.27C9.39 26.27 9.71 26.88 9.82 26.98C9.99 27.11 10.01 27 9.87 26.81C9.8 26.71 9.73 26.59 9.73 26.52C9.73 26.46 9.68 26.37 9.61 26.33C9.54 26.3 9.47 26.27 9.45 26.27ZM26.71 26.72C26.7 26.72 26.63 26.79 26.55 26.88L26.4 27.04L26.66 27.02C26.91 27.02 26.91 27.01 26.82 26.87C26.76 26.78 26.72 26.72 26.71 26.72ZM5.63 27.33C5.59 27.31 5.56 27.38 5.56 27.49C5.56 27.6 5.59 27.69 5.63 27.69C5.66 27.69 5.69 27.62 5.69 27.53C5.69 27.44 5.66 27.35 5.63 27.33ZM25.41 27.43L25.09 27.43L25.23 27.63C25.31 27.75 25.38 27.86 25.4 27.88C25.42 27.91 25.72 27.54 25.72 27.47C25.72 27.45 25.58 27.43 25.41 27.43ZM22.39 28.74C22.05 28.73 21.66 28.83 21.21 29.04C20.92 29.18 20.8 29.2 19.99 29.2C19.12 29.2 19.1 29.2 19.16 29.33C19.27 29.53 19.66 30.07 19.71 30.07C19.73 30.07 19.78 30 19.81 29.93C19.91 29.71 20.14 29.62 20.36 29.69C20.47 29.73 20.57 29.8 20.59 29.85C20.6 29.9 20.71 29.94 20.83 29.94C20.94 29.94 21.07 29.98 21.1 30.03C21.17 30.11 21.21 30.11 21.36 30.03C21.48 29.97 21.58 29.96 21.69 29.99C21.8 30.04 21.86 30.02 21.93 29.93C21.99 29.86 22.12 29.8 22.23 29.8C22.34 29.79 22.43 29.77 22.43 29.75C22.41 29.58 22.47 29.45 22.64 29.29C22.79 29.14 22.82 29.08 22.77 29.03C22.72 28.98 22.69 28.9 22.69 28.85C22.69 28.77 22.61 28.75 22.39 28.74ZM23.51 29.36C23.48 29.36 23.47 29.41 23.49 29.46C23.51 29.51 23.54 29.55 23.55 29.55C23.56 29.55 23.58 29.51 23.58 29.46C23.58 29.41 23.55 29.36 23.51 29.36ZM15.71 9.76C15.53 9.89 15.45 9.91 15.4 9.85C15.35 9.8 15.36 9.79 15.45 9.83C15.52 9.85 15.56 9.84 15.54 9.82C15.5 9.79 15.55 9.73 15.63 9.68C15.9 9.54 15.96 9.59 15.71 9.76ZM16.17 11.29C16.18 11.35 16.15 11.4 16.09 11.4C15.98 11.4 15.91 11.29 15.96 11.2C16.02 11.11 16.14 11.16 16.17 11.29ZM17.27 13.59C17.26 13.66 17.22 13.71 17.2 13.69C17.19 13.67 17.19 13.61 17.21 13.55C17.27 13.41 17.31 13.44 17.27 13.59ZM24.26 19.37C24.74 19.76 25.03 20.4 24.94 20.87C24.92 21 24.79 21.28 24.65 21.5C24.51 21.72 24.4 21.94 24.4 21.99C24.4 22.05 24.38 22.08 24.35 22.07C24.32 22.06 24.2 21.99 24.07 21.92L23.83 21.8L23.83 21.34C23.83 20.91 23.77 20.73 23.61 20.73C23.57 20.73 23.36 20.87 23.14 21.03L22.75 21.32L22.47 21.21C22.13 21.08 21.79 21.13 21.65 21.32C21.56 21.46 21.56 21.46 21.52 21.27C21.5 21.17 21.45 21.02 21.42 20.94C21.36 20.8 21.37 20.79 21.5 20.89C21.88 21.16 22.44 20.85 22.44 20.38C22.44 20.2 22.39 20.1 22.24 19.96L22.03 19.77L22.36 19.45C22.54 19.27 22.78 19.1 22.89 19.06C23.4 18.92 23.83 19.01 24.26 19.37ZM22.49 19.5L22.24 19.72L22.37 19.86C22.61 20.12 22.65 20.37 22.51 20.69L22.38 20.99L22.55 21.08C22.72 21.16 22.74 21.15 23.12 20.86C23.34 20.69 23.49 20.53 23.45 20.51C23.34 20.44 23.38 20.05 23.52 19.87C23.62 19.73 23.7 19.7 23.92 19.7C24.14 19.7 24.23 19.73 24.33 19.87C24.57 20.19 24.48 20.59 24.14 20.73L23.94 20.82L23.97 21.26C23.99 21.67 24.06 21.82 24.21 21.83C24.3 21.83 24.71 21.14 24.78 20.89C24.84 20.67 24.83 20.58 24.72 20.28C24.54 19.81 24.28 19.49 23.88 19.29C23.37 19.03 22.96 19.1 22.49 19.5ZM23.6 19.99C23.47 20.2 23.51 20.4 23.72 20.56C23.89 20.69 23.91 20.69 24.07 20.6C24.31 20.46 24.38 20.21 24.25 20C24.1 19.77 23.75 19.76 23.6 19.99ZM21.64 21.51L21.86 21.61C22.22 21.76 22.28 21.85 22.28 22.26C22.28 22.57 22.25 22.69 22.07 22.97C21.91 23.22 21.86 23.36 21.88 23.5C21.9 23.62 21.88 23.69 21.84 23.69C21.7 23.69 21.54 23.93 21.58 24.07C21.61 24.16 21.56 24.25 21.42 24.4C21.24 24.58 21.22 24.59 21.26 24.45C21.59 23.27 21.64 23 21.64 22.26L21.64 21.51ZM21.77 22.46L21.77 23.17L21.96 22.88C22.19 22.52 22.23 22 22.03 21.85C21.8 21.68 21.77 21.74 21.77 22.46ZM21.72 23.26C21.7 23.24 21.68 23.28 21.69 23.35C21.69 23.42 21.7 23.44 21.72 23.39C21.74 23.34 21.74 23.28 21.72 23.26ZM24.47 22.26C24.52 22.3 24.67 22.36 24.81 22.41C25.66 22.68 26.44 23.38 26.58 24L26.63 24.18L26.41 23.98C26.14 23.71 25.76 23.48 25.43 23.38C25.01 23.24 24.31 23.31 23.82 23.55C23.21 23.84 22.58 24.28 22.1 24.75C21.87 24.98 21.67 25.18 21.65 25.18C21.64 25.18 21.62 25.1 21.6 25.02C21.58 24.9 21.6 24.85 21.72 24.83C21.89 24.78 21.98 24.56 21.88 24.44C21.82 24.37 21.84 24.34 21.96 24.31C22.12 24.27 22.24 24.02 22.15 23.89C22.13 23.85 22.17 23.82 22.24 23.82C22.32 23.82 22.5 23.68 22.67 23.49C23.43 22.64 23.55 22.54 23.76 22.54C23.95 22.54 24.21 22.72 24.21 22.86C24.21 22.89 24.28 22.92 24.37 22.92C24.5 22.92 24.52 22.89 24.52 22.73C24.52 22.63 24.49 22.46 24.46 22.37C24.4 22.23 24.41 22.21 24.47 22.26ZM24.71 22.54C24.68 22.54 24.65 22.64 24.65 22.76C24.65 22.94 24.62 23 24.51 23.04C24.31 23.11 24.14 23.06 24.07 22.88C23.9 22.5 23.56 22.66 22.98 23.37C22.75 23.65 22.5 23.9 22.44 23.92C22.37 23.95 22.31 24.02 22.31 24.09C22.31 24.15 22.25 24.27 22.19 24.34C22.12 24.41 22.06 24.5 22.06 24.54C22.06 24.59 22.18 24.5 22.33 24.36C22.65 24.04 23.51 23.49 24.01 23.31C24.66 23.06 25.42 23.13 26 23.48C26.12 23.57 26.23 23.6 26.23 23.57C26.23 23.44 25.56 22.9 25.19 22.72C24.96 22.62 24.75 22.54 24.71 22.54ZM21.21 24.66C21.22 24.66 21.24 24.69 21.24 24.72C21.24 24.76 21.21 24.79 21.17 24.79C21.14 24.79 21.12 24.76 21.14 24.72C21.16 24.69 21.19 24.66 21.21 24.66ZM18.41 24.85C18.48 24.85 18.5 24.98 18.5 25.38L18.51 25.92L18.42 25.46C18.37 25.21 18.34 24.98 18.34 24.93C18.33 24.89 18.37 24.85 18.41 24.85ZM21.1 25.01C21.14 25.19 21.22 25.29 21.37 25.32C21.49 25.34 21.29 25.57 20.47 26.35C19.95 26.84 19.25 27.37 19.69 26.94C19.83 26.8 19.97 26.64 20 26.59C20.04 26.53 20.21 26.28 20.4 26.04C20.58 25.79 20.8 25.43 20.9 25.24C21.03 24.97 21.08 24.92 21.1 25.01ZM20.88 25.59C20.67 25.91 20.7 25.94 20.95 25.69C21.07 25.57 21.15 25.45 21.14 25.42C21.08 25.33 21.02 25.37 20.88 25.59ZM18.24 26.27C18.25 26.27 18.27 26.3 18.27 26.33C18.27 26.37 18.23 26.4 18.2 26.4C18.17 26.4 18.15 26.37 18.17 26.33C18.19 26.3 18.22 26.27 18.24 26.27ZM18.13 26.53C18.15 26.57 18.11 26.65 18.05 26.71C17.96 26.8 17.96 26.8 18.03 26.64C18.07 26.55 18.12 26.49 18.13 26.53ZM22.17 27.34C22.18 27.39 22.18 27.48 22.17 27.54C22.15 27.6 22.13 27.56 22.13 27.46C22.13 27.35 22.15 27.31 22.17 27.34ZM17.83 27.56C17.75 27.63 17.65 27.69 17.61 27.69C17.57 27.69 17.63 27.63 17.73 27.56C17.98 27.4 18.02 27.4 17.83 27.56ZM24.13 27.81C24.44 28.01 24.54 28.22 24.55 28.67C24.56 29.12 24.45 29.24 24.38 28.88C24.33 28.61 24.16 28.33 24.06 28.33C24.02 28.33 23.92 28.27 23.83 28.2C23.65 28.06 23.42 28.04 23.16 28.14C23.02 28.19 22.97 28.18 22.89 28.09C22.79 27.98 22.79 27.97 23.06 27.83C23.43 27.65 23.85 27.64 24.13 27.81ZM23.56 27.82L23.35 27.83L23.54 27.9C23.9 28.04 24.26 28.27 24.33 28.38C24.37 28.45 24.4 28.46 24.4 28.41C24.4 28.25 24.18 27.99 23.97 27.91C23.86 27.85 23.68 27.81 23.56 27.82ZM17.22 17.06C17.27 17.06 17.32 17.11 17.32 17.16C17.32 17.21 17.35 17.26 17.39 17.26C17.43 17.26 17.45 17.27 17.43 17.29C17.39 17.34 17.13 17.18 17.13 17.11C17.13 17.08 17.17 17.06 17.22 17.06ZM13.91 19.56L14.29 19.9C14.68 20.24 14.68 20.24 14.54 20.35C14.37 20.49 14.37 20.67 14.56 20.85C14.79 21.07 15.06 21.14 15.34 21.05C15.63 20.96 15.86 20.75 15.86 20.6C15.86 20.53 15.95 20.43 16.07 20.37C16.18 20.31 16.44 20.15 16.64 20.02C16.83 19.88 17.01 19.77 17.02 19.77C17.03 19.77 16.95 20.19 16.84 20.71C16.72 21.24 16.62 21.85 16.62 22.07L16.62 22.47L13.91 22.47L13.91 22.24C13.91 22.07 13.86 21.96 13.75 21.85C13.66 21.77 13.59 21.67 13.59 21.63C13.59 21.6 13.66 21.5 13.75 21.41C13.9 21.27 13.91 21.24 13.91 20.41L13.91 19.56ZM13.91 21.63C13.91 21.85 13.93 21.96 13.99 21.96C14.2 21.96 14.31 21.56 14.15 21.39C13.98 21.22 13.91 21.31 13.91 21.63ZM20.86 17.71C20.9 17.71 20.92 17.75 20.92 17.8C20.92 17.87 20.98 17.9 21.1 17.91C21.19 17.91 21.23 17.93 21.17 17.94C21.12 17.96 21.05 18.02 21.03 18.07C21 18.12 20.95 18.16 20.91 18.16C20.86 18.16 20.86 18.13 20.91 18.07C20.97 18 20.97 17.97 20.89 17.94C20.84 17.92 20.79 17.86 20.79 17.8C20.79 17.75 20.83 17.71 20.86 17.71ZM20.74 17.9C20.77 17.9 20.79 17.93 20.79 17.96C20.79 18 20.75 18.03 20.69 18.03C20.64 18.03 20.62 18 20.64 17.96C20.66 17.93 20.7 17.9 20.74 17.9ZM19.93 22C19.95 22.12 19.95 22.21 19.93 22.21C19.87 22.21 19.75 22.05 19.76 21.96C19.76 21.9 19.77 21.81 19.78 21.76C19.79 21.61 19.89 21.77 19.93 22ZM6.07 23.86C6.19 24 6.09 24.27 5.92 24.27C5.64 24.27 5.52 23.96 5.74 23.83C5.89 23.74 5.98 23.75 6.07 23.86ZM6.36 24.5C6.48 24.69 6.46 24.73 6.19 24.74C5.92 24.76 5.79 24.57 5.97 24.43C6.14 24.3 6.24 24.31 6.36 24.5ZM11.6 8.29C12.02 8.49 11.84 8.61 11.03 8.64C10.33 8.67 10.14 8.74 9.72 9.13C9.37 9.45 9.16 9.91 9.16 10.38C9.16 10.81 9.22 10.84 9.49 10.56C9.72 10.33 9.78 10.32 10.06 10.51C10.23 10.64 10.28 10.71 10.29 10.93C10.32 11.26 10.18 11.49 9.86 11.65C9.6 11.79 9.4 11.76 9.04 11.55C8.62 11.29 8.41 10.46 8.63 9.87C8.89 9.15 9.5 8.5 10.11 8.29C10.5 8.14 11.31 8.14 11.6 8.29ZM9.8 16.23C10.2 16.52 10.68 16.64 11.36 16.64C11.71 16.64 12.02 16.66 12.04 16.69C12.07 16.71 11.82 16.91 11.49 17.13C10.79 17.6 10.44 17.93 10.1 18.43C9.96 18.64 9.82 18.79 9.78 18.78C9.73 18.77 9.71 18.49 9.73 17.8C9.74 16.95 9.73 16.8 9.61 16.48C9.54 16.29 9.48 16.12 9.48 16.11C9.48 16.06 9.65 16.12 9.8 16.23ZM10.43 17.01C10.26 17.02 10.24 17.04 10.24 17.2C10.24 17.32 10.27 17.38 10.33 17.38C10.38 17.38 10.43 17.35 10.43 17.29C10.43 17.25 10.49 17.19 10.56 17.17C10.64 17.15 10.68 17.11 10.66 17.07C10.63 17.04 10.53 17.01 10.43 17.01ZM6.99 16.87C7.03 16.87 7.1 16.97 7.14 17.09C7.25 17.42 7.61 17.8 7.97 17.96C8.25 18.09 8.29 18.12 8.2 18.2C8.16 18.25 7.94 18.33 7.74 18.38C7.31 18.5 7.1 18.63 6.92 18.92C6.73 19.21 6.62 19.17 6.43 18.75C6.29 18.45 6.19 18.34 5.92 18.16C5.73 18.03 5.52 17.9 5.46 17.85C5.34 17.78 5.34 17.77 5.46 17.67C5.53 17.62 5.7 17.58 5.84 17.58C6.14 17.58 6.39 17.44 6.7 17.11C6.82 16.97 6.95 16.87 6.99 16.87ZM6.81 17.71C6.79 17.78 6.72 17.84 6.66 17.84C6.47 17.84 6.43 17.91 6.57 18.01C6.64 18.06 6.7 18.14 6.7 18.2C6.7 18.31 6.79 18.31 6.89 18.19C6.93 18.14 7.02 18.09 7.09 18.09C7.22 18.09 7.22 18.09 7.05 17.79C6.9 17.55 6.85 17.53 6.81 17.71ZM4.06 20C4.22 20.16 4.2 20.38 4.01 20.52C3.86 20.62 3.82 20.62 3.67 20.53C3.49 20.43 3.43 20.22 3.54 20.03C3.62 19.86 3.89 19.85 4.06 20ZM8.64 20.07C8.75 20.11 8.74 20.26 8.62 20.31C8.49 20.36 8.53 20.9 8.68 21.47C8.8 21.88 8.77 22.08 8.51 22.54C8.04 23.39 8.01 23.48 8.04 24.2C8.06 24.84 8.08 24.92 8.3 25.36C8.56 25.9 8.56 25.88 8.44 25.88C8.2 25.88 7.55 24.67 7.37 23.89C7.25 23.37 7.24 22.17 7.36 21.73C7.53 21.08 7.99 20.34 8.34 20.15C8.46 20.09 8.6 20.06 8.64 20.07ZM7.97 21.38C7.89 21.38 7.77 21.9 7.78 22.26L7.79 22.57L7.86 22.35C7.9 22.23 7.98 22.11 8.05 22.08C8.16 22.01 8.2 21.83 8.09 21.83C8.06 21.83 8.03 21.72 8.03 21.6C8.03 21.48 8 21.38 7.97 21.38ZM0.59 24.59C0.67 24.67 0.69 24.76 0.66 24.88C0.62 25.03 0.59 25.05 0.42 25.01C0.13 24.95 0.04 24.81 0.17 24.62C0.28 24.43 0.45 24.42 0.59 24.59ZM0.57 25.45C0.57 25.63 0.56 25.63 0.3 25.61C0.01 25.59 -0.08 25.45 0.06 25.27C0.23 25.07 0.57 25.18 0.57 25.45ZM0.6 25.95C0.62 25.98 0.62 26.08 0.59 26.17C0.56 26.31 0.52 26.34 0.36 26.32C0.12 26.3 0.01 26.13 0.12 25.99C0.21 25.88 0.54 25.84 0.6 25.95ZM0.64 26.47C0.67 26.47 0.72 26.51 0.75 26.58C0.83 26.72 0.7 26.91 0.52 26.91C0.29 26.91 0.23 26.55 0.46 26.51C0.54 26.49 0.62 26.48 0.64 26.47ZM5.01 29.47C5.14 29.59 5.15 29.78 5.04 30.02C4.94 30.24 4.8 30.24 4.56 30.03C4.33 29.84 4.31 29.67 4.49 29.49C4.64 29.33 4.85 29.32 5.01 29.47ZM7.74 29.98C7.88 30.11 7.86 30.16 7.67 30.33C7.5 30.45 7.49 30.45 7.41 30.35C7.33 30.23 7.31 29.99 7.38 29.92C7.45 29.84 7.64 29.88 7.74 29.98ZM5.46 30C5.68 30 5.77 30.15 5.7 30.4C5.59 30.82 5.2 30.67 5.27 30.23C5.31 30.05 5.34 30 5.46 30ZM6.92 30.13C7.05 30.13 7.1 30.18 7.17 30.34C7.28 30.6 7.2 30.73 6.93 30.7C6.76 30.69 6.73 30.65 6.71 30.5C6.7 30.4 6.71 30.27 6.73 30.22C6.74 30.17 6.83 30.13 6.92 30.13ZM6.23 30.2C6.3 30.2 6.39 30.23 6.43 30.27C6.48 30.32 6.51 30.41 6.51 30.49C6.51 30.68 6.39 30.78 6.15 30.78C5.95 30.78 5.94 30.76 5.94 30.56C5.94 30.45 5.97 30.32 6.02 30.27C6.06 30.23 6.15 30.2 6.23 30.2Z" />
		</g>
	</g>
</svg>